G04 (created by PCBNEW (2013-jul-07)-stable) date Sat 03 Jan 2015 11:12:08 AM EET*
%MOIN*%
G04 Gerber Fmt 3.4, Leading zero omitted, Abs format*
%FSLAX34Y34*%
G01*
G70*
G90*
G04 APERTURE LIST*
%ADD10C,0.00590551*%
%ADD11R,0.07X0.07*%
%ADD12C,0.07*%
%ADD13R,0.590551X5.3937*%
%ADD14O,0.19685X0.0787402*%
%ADD15O,0.0393701X0.0393701*%
%ADD16C,0.314961*%
%ADD17C,0.16*%
%ADD18C,0.0787402*%
G04 APERTURE END LIST*
G54D10*
G54D11*
X99850Y-66550D03*
G54D12*
X99850Y-68550D03*
G54D11*
X67850Y-66550D03*
G54D12*
X67850Y-68550D03*
G54D11*
X99850Y-71050D03*
G54D12*
X99850Y-73050D03*
G54D11*
X67850Y-71050D03*
G54D12*
X67850Y-73050D03*
G54D11*
X99850Y-77050D03*
G54D12*
X99850Y-79050D03*
G54D11*
X67850Y-77050D03*
G54D12*
X67850Y-79050D03*
G54D11*
X99850Y-56050D03*
G54D12*
X99850Y-58050D03*
G54D11*
X67850Y-50050D03*
G54D12*
X67850Y-52050D03*
G54D11*
X99850Y-50050D03*
G54D12*
X99850Y-52050D03*
G54D11*
X67850Y-45550D03*
G54D12*
X67850Y-47550D03*
G54D11*
X99850Y-45550D03*
G54D12*
X99850Y-47550D03*
G54D11*
X67850Y-39550D03*
G54D12*
X67850Y-41550D03*
G54D11*
X99850Y-39550D03*
G54D12*
X99850Y-41550D03*
G54D11*
X67850Y-35050D03*
G54D12*
X67850Y-37050D03*
G54D11*
X99850Y-35050D03*
G54D12*
X99850Y-37050D03*
G54D11*
X67850Y-29050D03*
G54D12*
X67850Y-31050D03*
G54D11*
X99850Y-29050D03*
G54D12*
X99850Y-31050D03*
G54D11*
X67850Y-56050D03*
G54D12*
X67850Y-58050D03*
G54D11*
X99850Y-60550D03*
G54D12*
X99850Y-62550D03*
G54D11*
X67850Y-60550D03*
G54D12*
X67850Y-62550D03*
G54D13*
X83802Y-54081D03*
X73802Y-54081D03*
X93802Y-54081D03*
G54D14*
X78600Y-61550D03*
X78600Y-62550D03*
G54D15*
X78850Y-60550D03*
G54D14*
X89100Y-46550D03*
X89100Y-45550D03*
G54D15*
X88850Y-47550D03*
G54D14*
X78600Y-46550D03*
X78600Y-47550D03*
G54D15*
X78850Y-45550D03*
G54D14*
X89100Y-40550D03*
X89100Y-39550D03*
G54D15*
X88850Y-41550D03*
G54D14*
X89100Y-36050D03*
X89100Y-35050D03*
G54D15*
X88850Y-37050D03*
G54D14*
X89100Y-30050D03*
X89100Y-29050D03*
G54D15*
X88850Y-31050D03*
G54D14*
X78600Y-30050D03*
X78600Y-31050D03*
G54D15*
X78850Y-29050D03*
G54D14*
X78600Y-36050D03*
X78600Y-37050D03*
G54D15*
X78850Y-35050D03*
G54D14*
X78600Y-40550D03*
X78600Y-41550D03*
G54D15*
X78850Y-39550D03*
G54D14*
X89100Y-78050D03*
X89100Y-77050D03*
G54D15*
X88850Y-79050D03*
G54D14*
X89100Y-67550D03*
X89100Y-66550D03*
G54D15*
X88850Y-68550D03*
G54D14*
X78600Y-67550D03*
X78600Y-68550D03*
G54D15*
X78850Y-66550D03*
G54D14*
X78600Y-72050D03*
X78600Y-73050D03*
G54D15*
X78850Y-71050D03*
G54D14*
X78600Y-78050D03*
X78600Y-79050D03*
G54D15*
X78850Y-77050D03*
G54D14*
X89100Y-61550D03*
X89100Y-60550D03*
G54D15*
X88850Y-62550D03*
G54D14*
X89100Y-57050D03*
X89100Y-56050D03*
G54D15*
X88850Y-58050D03*
G54D14*
X89100Y-51050D03*
X89100Y-50050D03*
G54D15*
X88850Y-52050D03*
G54D14*
X78600Y-51050D03*
X78600Y-52050D03*
G54D15*
X78850Y-50050D03*
G54D14*
X78600Y-57050D03*
X78600Y-58050D03*
G54D15*
X78850Y-56050D03*
G54D14*
X89100Y-72050D03*
X89100Y-71050D03*
G54D15*
X88850Y-73050D03*
G54D16*
X93850Y-79650D03*
X93850Y-31950D03*
X93850Y-37250D03*
X93850Y-69050D03*
X93850Y-42550D03*
X93850Y-47850D03*
X93850Y-53150D03*
X93850Y-58450D03*
X93850Y-63750D03*
X93850Y-74350D03*
X73750Y-77800D03*
X73750Y-30100D03*
X73750Y-35400D03*
X73750Y-40700D03*
X73750Y-46000D03*
X73750Y-51300D03*
X73750Y-56600D03*
X73750Y-61900D03*
X73750Y-67200D03*
X73750Y-72500D03*
G54D17*
X83858Y-75984D03*
X83858Y-65551D03*
X83858Y-54921D03*
X83858Y-44488D03*
X83858Y-33858D03*
G54D18*
X78600Y-78050D02*
X78350Y-78050D01*
X77350Y-78050D02*
X77350Y-77550D01*
X77350Y-76550D02*
X77350Y-78050D01*
X77850Y-76550D02*
X77350Y-76550D01*
X77850Y-77550D02*
X77850Y-76550D01*
X78350Y-78050D02*
X77850Y-77550D01*
X78600Y-72050D02*
X78350Y-72050D01*
X77350Y-70550D02*
X77350Y-71550D01*
X77850Y-70550D02*
X77350Y-70550D01*
X77850Y-71550D02*
X77850Y-70550D01*
X78350Y-72050D02*
X77850Y-71550D01*
X78600Y-67550D02*
X78350Y-67550D01*
X77350Y-66050D02*
X77350Y-67050D01*
X77850Y-66050D02*
X77350Y-66050D01*
X77850Y-67050D02*
X77850Y-66050D01*
X78350Y-67550D02*
X77850Y-67050D01*
X78600Y-61550D02*
X78350Y-61550D01*
X78350Y-61550D02*
X77850Y-61050D01*
X78600Y-57050D02*
X78350Y-57050D01*
X78350Y-57050D02*
X77850Y-56550D01*
X78600Y-51050D02*
X78350Y-51050D01*
X78350Y-51050D02*
X77850Y-50550D01*
X78600Y-46550D02*
X78350Y-46550D01*
X78350Y-46550D02*
X77850Y-46050D01*
X78600Y-40550D02*
X78350Y-40550D01*
X77350Y-39050D02*
X77350Y-40050D01*
X77850Y-39050D02*
X77350Y-39050D01*
X77850Y-40050D02*
X77850Y-39050D01*
X78350Y-40550D02*
X77850Y-40050D01*
X78600Y-36050D02*
X78350Y-36050D01*
X77350Y-34550D02*
X77350Y-35550D01*
X77850Y-34550D02*
X77350Y-34550D01*
X77850Y-35550D02*
X77850Y-34550D01*
X78350Y-36050D02*
X77850Y-35550D01*
X78600Y-30050D02*
X78350Y-30050D01*
X77350Y-27550D02*
X77350Y-29550D01*
X77850Y-27550D02*
X77350Y-27550D01*
X77850Y-29550D02*
X77850Y-27550D01*
X78350Y-30050D02*
X77850Y-29550D01*
X78600Y-72050D02*
X76850Y-72050D01*
X78600Y-67550D02*
X76850Y-67550D01*
X78600Y-61550D02*
X76850Y-61550D01*
X78600Y-57050D02*
X76850Y-57050D01*
X78600Y-51050D02*
X76834Y-51050D01*
X76834Y-51050D02*
X76850Y-51050D01*
X78600Y-46550D02*
X76850Y-46550D01*
X78600Y-40550D02*
X76850Y-40550D01*
X78600Y-36050D02*
X76850Y-36050D01*
X78600Y-30050D02*
X76850Y-30050D01*
X76850Y-27050D02*
X76850Y-30050D01*
X76850Y-30050D02*
X76850Y-36050D01*
X76850Y-36050D02*
X76850Y-40550D01*
X76850Y-61550D02*
X76850Y-67550D01*
X76850Y-67550D02*
X76850Y-72050D01*
X76850Y-72050D02*
X76850Y-75550D01*
X76850Y-75550D02*
X76850Y-78050D01*
X76850Y-81050D02*
X76850Y-78050D01*
X76850Y-78050D02*
X78600Y-78050D01*
X77350Y-49550D02*
X77350Y-50550D01*
X77850Y-49550D02*
X77350Y-49550D01*
X77850Y-50550D02*
X77850Y-49550D01*
X77350Y-60050D02*
X77350Y-61050D01*
X77850Y-60050D02*
X77350Y-60050D01*
X77850Y-61050D02*
X77850Y-60050D01*
X77350Y-45050D02*
X77350Y-46050D01*
X77850Y-45050D02*
X77350Y-45050D01*
X77850Y-46050D02*
X77850Y-45050D01*
X76850Y-40550D02*
X76850Y-46550D01*
X76850Y-46550D02*
X76850Y-51050D01*
X77350Y-55550D02*
X77350Y-56550D01*
X77850Y-55550D02*
X77350Y-55550D01*
X77850Y-56550D02*
X77850Y-55550D01*
X76850Y-54050D02*
X73834Y-54050D01*
X73834Y-54050D02*
X73802Y-54081D01*
X76850Y-51050D02*
X76850Y-54050D01*
X76850Y-54050D02*
X76850Y-57050D01*
X76850Y-57050D02*
X76850Y-61550D01*
X89100Y-36050D02*
X88350Y-36050D01*
X87350Y-38550D02*
X87350Y-36550D01*
X87850Y-38050D02*
X87350Y-38550D01*
X87850Y-36550D02*
X87850Y-38050D01*
X88350Y-36050D02*
X87850Y-36550D01*
X79350Y-38050D02*
X79850Y-38050D01*
X78850Y-37550D02*
X79350Y-38050D01*
X80350Y-37550D02*
X78850Y-37550D01*
X80350Y-38550D02*
X80350Y-37550D01*
X78850Y-38550D02*
X80350Y-38550D01*
X78600Y-38300D02*
X78850Y-38550D01*
X89100Y-36050D02*
X86850Y-36050D01*
X86850Y-40550D02*
X86850Y-36050D01*
X86850Y-36050D02*
X86850Y-30050D01*
X80850Y-37050D02*
X83802Y-54081D01*
X87350Y-34050D02*
X87350Y-30550D01*
X87850Y-33550D02*
X87350Y-34050D01*
X87850Y-30550D02*
X87850Y-33550D01*
X79350Y-32050D02*
X79350Y-33050D01*
X79850Y-32050D02*
X79350Y-32050D01*
X79850Y-33550D02*
X79850Y-32050D01*
X78850Y-33550D02*
X79850Y-33550D01*
X78850Y-31550D02*
X78850Y-33550D01*
X80350Y-31550D02*
X78850Y-31550D01*
X80350Y-34050D02*
X80350Y-31550D01*
X78850Y-34050D02*
X80350Y-34050D01*
X78600Y-33800D02*
X78850Y-34050D01*
X86850Y-30050D02*
X86850Y-27050D01*
X89100Y-30050D02*
X88350Y-30050D01*
X88350Y-30050D02*
X87850Y-30550D01*
X89100Y-40550D02*
X88350Y-40550D01*
X87350Y-44550D02*
X87350Y-41050D01*
X87850Y-44050D02*
X87350Y-44550D01*
X87850Y-41050D02*
X87850Y-44050D01*
X88350Y-40550D02*
X87850Y-41050D01*
X89100Y-46550D02*
X88350Y-46550D01*
X87350Y-49050D02*
X87350Y-47050D01*
X87850Y-48550D02*
X87350Y-49050D01*
X87850Y-47050D02*
X87850Y-48550D01*
X88350Y-46550D02*
X87850Y-47050D01*
X89100Y-51050D02*
X87850Y-51050D01*
X88350Y-51050D02*
X87850Y-51550D01*
X89100Y-51050D02*
X88350Y-51050D01*
X87850Y-51050D02*
X87350Y-51550D01*
X89100Y-61550D02*
X88350Y-61550D01*
X87350Y-65550D02*
X87350Y-62050D01*
X87850Y-65050D02*
X87350Y-65550D01*
X87850Y-62050D02*
X87850Y-65050D01*
X88350Y-61550D02*
X87850Y-62050D01*
X89100Y-67550D02*
X88350Y-67550D01*
X87350Y-70050D02*
X87350Y-68050D01*
X87850Y-69550D02*
X87350Y-70050D01*
X87850Y-68050D02*
X87850Y-69550D01*
X88350Y-67550D02*
X87850Y-68050D01*
X89100Y-72050D02*
X88350Y-72050D01*
X87350Y-76050D02*
X87350Y-72550D01*
X87850Y-75550D02*
X87350Y-76050D01*
X87850Y-72550D02*
X87850Y-75550D01*
X88350Y-72050D02*
X87850Y-72550D01*
X89100Y-78050D02*
X87350Y-78050D01*
X87350Y-78050D02*
X87350Y-80050D01*
X89100Y-78050D02*
X88350Y-78050D01*
X87850Y-80550D02*
X86850Y-80550D01*
X87850Y-78550D02*
X87850Y-80550D01*
X88350Y-78050D02*
X87850Y-78550D01*
X78600Y-31050D02*
X78600Y-33800D01*
X78600Y-37050D02*
X78600Y-38300D01*
X78600Y-41550D02*
X78600Y-44300D01*
X79350Y-42550D02*
X79350Y-43550D01*
X79850Y-42550D02*
X79350Y-42550D01*
X79850Y-44050D02*
X79850Y-42550D01*
X78850Y-44050D02*
X79850Y-44050D01*
X78850Y-42050D02*
X78850Y-44050D01*
X80350Y-42050D02*
X78850Y-42050D01*
X80350Y-44550D02*
X80350Y-42050D01*
X78850Y-44550D02*
X80350Y-44550D01*
X78600Y-44300D02*
X78850Y-44550D01*
X78600Y-47550D02*
X78600Y-48800D01*
X79350Y-48550D02*
X79850Y-48550D01*
X79350Y-48050D02*
X79350Y-48550D01*
X80350Y-48050D02*
X79350Y-48050D01*
X80350Y-49050D02*
X80350Y-48050D01*
X78850Y-49050D02*
X80350Y-49050D01*
X78600Y-48800D02*
X78850Y-49050D01*
X78600Y-52050D02*
X78600Y-54800D01*
X78600Y-58050D02*
X78600Y-59300D01*
X78600Y-62550D02*
X78600Y-65300D01*
X79350Y-63550D02*
X79350Y-64550D01*
X79850Y-63550D02*
X79350Y-63550D01*
X79850Y-65050D02*
X79850Y-63550D01*
X78850Y-65050D02*
X79850Y-65050D01*
X78850Y-63050D02*
X78850Y-65050D01*
X80350Y-63050D02*
X78850Y-63050D01*
X80350Y-65550D02*
X80350Y-63050D01*
X78850Y-65550D02*
X80350Y-65550D01*
X78600Y-65300D02*
X78850Y-65550D01*
X78600Y-68550D02*
X78600Y-69800D01*
X78850Y-69550D02*
X80350Y-69550D01*
X78850Y-69050D02*
X78850Y-69550D01*
X80350Y-69050D02*
X78850Y-69050D01*
X80350Y-70050D02*
X80350Y-69050D01*
X78850Y-70050D02*
X80350Y-70050D01*
X78600Y-69800D02*
X78850Y-70050D01*
X78600Y-73050D02*
X78600Y-75800D01*
X79850Y-75550D02*
X79850Y-73550D01*
X79350Y-75550D02*
X79850Y-75550D01*
X79350Y-73550D02*
X79350Y-75550D01*
X80350Y-73550D02*
X79350Y-73550D01*
X80350Y-76050D02*
X80350Y-73550D01*
X78850Y-76050D02*
X80350Y-76050D01*
X78600Y-75800D02*
X78850Y-76050D01*
X78600Y-79050D02*
X78600Y-80300D01*
X78850Y-80050D02*
X78850Y-79550D01*
X80850Y-80050D02*
X78850Y-80050D01*
X80850Y-80550D02*
X80850Y-80050D01*
X78850Y-80550D02*
X80850Y-80550D01*
X78600Y-80300D02*
X78850Y-80550D01*
X89100Y-72050D02*
X86850Y-72050D01*
X89100Y-67550D02*
X86850Y-67550D01*
X89100Y-61550D02*
X86850Y-61550D01*
X89100Y-51050D02*
X86850Y-51050D01*
X89100Y-46550D02*
X86850Y-46550D01*
X89100Y-40550D02*
X86850Y-40550D01*
X89100Y-30050D02*
X86850Y-30050D01*
X86850Y-80550D02*
X86850Y-72050D01*
X86850Y-72050D02*
X86850Y-67550D01*
X86850Y-67550D02*
X86850Y-61550D01*
X86850Y-51050D02*
X86850Y-46550D01*
X86850Y-46550D02*
X86850Y-40550D01*
X78600Y-41550D02*
X80850Y-41550D01*
X78600Y-37050D02*
X80850Y-37050D01*
X78600Y-31050D02*
X80850Y-31050D01*
X78600Y-47550D02*
X80850Y-47550D01*
X80850Y-47550D02*
X83802Y-54081D01*
X78600Y-52050D02*
X80850Y-52050D01*
X78600Y-58050D02*
X80850Y-58050D01*
X78600Y-62550D02*
X80850Y-62550D01*
X78600Y-68550D02*
X80850Y-68550D01*
X78600Y-73050D02*
X80850Y-73050D01*
X78600Y-79050D02*
X80850Y-79050D01*
X80850Y-81050D02*
X80850Y-27050D01*
X80850Y-79050D02*
X80850Y-81050D01*
X78850Y-59550D02*
X80350Y-59550D01*
X80850Y-79550D02*
X83802Y-54081D01*
X78850Y-79550D02*
X80850Y-79550D01*
X86850Y-54050D02*
X83834Y-54050D01*
X83834Y-54050D02*
X83802Y-54081D01*
X86850Y-54050D02*
X86850Y-51050D01*
X80850Y-41550D02*
X83802Y-54081D01*
X80850Y-31050D02*
X83802Y-54081D01*
X80850Y-52050D02*
X83802Y-54081D01*
X80850Y-62550D02*
X83802Y-54081D01*
X80850Y-68550D02*
X83802Y-54081D01*
X80850Y-73050D02*
X83802Y-54081D01*
X87850Y-51550D02*
X87850Y-54550D01*
X87850Y-54550D02*
X87350Y-55050D01*
X87350Y-51550D02*
X87350Y-55050D01*
X89100Y-57050D02*
X87850Y-57050D01*
X88350Y-57050D02*
X87850Y-57550D01*
X87850Y-57550D02*
X87850Y-59050D01*
X87850Y-59050D02*
X87350Y-59550D01*
X89100Y-57050D02*
X88350Y-57050D01*
X87350Y-57550D02*
X87350Y-59550D01*
X87850Y-57050D02*
X87350Y-57550D01*
X79350Y-53050D02*
X79350Y-54050D01*
X79850Y-53050D02*
X79350Y-53050D01*
X79850Y-54550D02*
X79850Y-53050D01*
X78850Y-54550D02*
X79850Y-54550D01*
X78850Y-52550D02*
X78850Y-54550D01*
X80350Y-52550D02*
X78850Y-52550D01*
X80350Y-55050D02*
X80350Y-52550D01*
X78850Y-55050D02*
X80350Y-55050D01*
X78600Y-54800D02*
X78850Y-55050D01*
X78850Y-59050D02*
X80350Y-59050D01*
X78850Y-58550D02*
X78850Y-59050D01*
X80350Y-58550D02*
X78850Y-58550D01*
X80350Y-59550D02*
X80350Y-58550D01*
X78600Y-59300D02*
X78850Y-59550D01*
X89100Y-57050D02*
X86850Y-57050D01*
X86850Y-61550D02*
X86850Y-57050D01*
X86850Y-57050D02*
X86850Y-54050D01*
X80850Y-58050D02*
X83802Y-54081D01*
X89100Y-35050D02*
X89100Y-32300D01*
X89850Y-34550D02*
X89850Y-32550D01*
X90350Y-34550D02*
X89850Y-34550D01*
X90350Y-32050D02*
X90350Y-34550D01*
X89350Y-32050D02*
X90350Y-32050D01*
X89100Y-32300D02*
X89350Y-32050D01*
X89100Y-39550D02*
X89100Y-38300D01*
X89850Y-39050D02*
X89850Y-38550D01*
X90350Y-39050D02*
X89850Y-39050D01*
X90350Y-38050D02*
X90350Y-39050D01*
X89350Y-38050D02*
X90350Y-38050D01*
X89100Y-38300D02*
X89350Y-38050D01*
X89100Y-35050D02*
X90850Y-35050D01*
X90850Y-35050D02*
X93802Y-54081D01*
X89100Y-45550D02*
X89100Y-42800D01*
X89850Y-45050D02*
X89850Y-43050D01*
X90350Y-45050D02*
X89850Y-45050D01*
X90350Y-42550D02*
X90350Y-45050D01*
X89350Y-42550D02*
X90350Y-42550D01*
X89100Y-42800D02*
X89350Y-42550D01*
X89100Y-50050D02*
X89100Y-48800D01*
X89850Y-49550D02*
X89850Y-49050D01*
X90350Y-49550D02*
X89850Y-49550D01*
X90350Y-48550D02*
X90350Y-49550D01*
X89350Y-48550D02*
X90350Y-48550D01*
X89100Y-48800D02*
X89350Y-48550D01*
X89100Y-45550D02*
X90850Y-45550D01*
X90850Y-45550D02*
X93802Y-54081D01*
X89100Y-39550D02*
X90850Y-39550D01*
X90850Y-39550D02*
X93802Y-54081D01*
X89100Y-50050D02*
X90850Y-50050D01*
X90850Y-50050D02*
X93802Y-54081D01*
X89100Y-29050D02*
X89100Y-27800D01*
X89850Y-28550D02*
X89850Y-28050D01*
X90350Y-28550D02*
X89850Y-28550D01*
X90350Y-27550D02*
X90350Y-28550D01*
X89350Y-27550D02*
X90350Y-27550D01*
X89100Y-27800D02*
X89350Y-27550D01*
X89100Y-56050D02*
X89100Y-53300D01*
X89850Y-55550D02*
X89850Y-53550D01*
X90350Y-55550D02*
X89850Y-55550D01*
X90350Y-53050D02*
X90350Y-55550D01*
X89350Y-53050D02*
X90350Y-53050D01*
X89100Y-53300D02*
X89350Y-53050D01*
X89100Y-60550D02*
X89100Y-59300D01*
X89850Y-60050D02*
X89850Y-59550D01*
X90350Y-60050D02*
X89850Y-60050D01*
X90350Y-59050D02*
X90350Y-60050D01*
X89350Y-59050D02*
X90350Y-59050D01*
X89100Y-59300D02*
X89350Y-59050D01*
X89100Y-66550D02*
X89100Y-63800D01*
X89850Y-66050D02*
X89850Y-64050D01*
X90350Y-66050D02*
X89850Y-66050D01*
X90350Y-63550D02*
X90350Y-66050D01*
X89350Y-63550D02*
X90350Y-63550D01*
X89100Y-63800D02*
X89350Y-63550D01*
X89100Y-71050D02*
X89100Y-69800D01*
X89850Y-70550D02*
X89850Y-70050D01*
X90350Y-70550D02*
X89850Y-70550D01*
X90350Y-69550D02*
X90350Y-70550D01*
X89350Y-69550D02*
X90350Y-69550D01*
X89100Y-69800D02*
X89350Y-69550D01*
X89100Y-77050D02*
X89100Y-74300D01*
X89850Y-76550D02*
X89850Y-74550D01*
X90350Y-76550D02*
X89850Y-76550D01*
X90350Y-74050D02*
X90350Y-76550D01*
X89350Y-74050D02*
X90350Y-74050D01*
X89100Y-74300D02*
X89350Y-74050D01*
X89100Y-71050D02*
X90850Y-71050D01*
X90850Y-71050D02*
X93802Y-54081D01*
X89100Y-66550D02*
X90850Y-66550D01*
X90850Y-66550D02*
X93802Y-54081D01*
X89100Y-60550D02*
X90850Y-60550D01*
X90850Y-60550D02*
X93802Y-54081D01*
X89100Y-56050D02*
X90850Y-56050D01*
X90850Y-56050D02*
X93802Y-54081D01*
X89100Y-29050D02*
X90850Y-29050D01*
X90850Y-29050D02*
X93802Y-54081D01*
X89100Y-77050D02*
X90850Y-77050D01*
X90850Y-81050D02*
X90850Y-27050D01*
X90850Y-77050D02*
X90850Y-81050D01*
M02*
