G04 (created by PCBNEW (2013-jul-07)-stable) date Sat 03 Jan 2015 11:12:08 AM EET*
%MOIN*%
G04 Gerber Fmt 3.4, Leading zero omitted, Abs format*
%FSLAX34Y34*%
G01*
G70*
G90*
G04 APERTURE LIST*
%ADD10C,0.00590551*%
%ADD11R,0.07X0.07*%
%ADD12C,0.07*%
%ADD13O,0.19685X0.0787402*%
%ADD14O,0.0393701X0.0393701*%
%ADD15R,0.590551X0.314961*%
%ADD16R,0.590551X0.15748*%
%ADD17C,0.314961*%
%ADD18C,0.16*%
%ADD19C,0.137795*%
G04 APERTURE END LIST*
G54D10*
G54D11*
X99850Y-66550D03*
G54D12*
X99850Y-68550D03*
G54D11*
X67850Y-66550D03*
G54D12*
X67850Y-68550D03*
G54D11*
X99850Y-71050D03*
G54D12*
X99850Y-73050D03*
G54D11*
X67850Y-71050D03*
G54D12*
X67850Y-73050D03*
G54D11*
X99850Y-77050D03*
G54D12*
X99850Y-79050D03*
G54D11*
X67850Y-77050D03*
G54D12*
X67850Y-79050D03*
G54D11*
X99850Y-56050D03*
G54D12*
X99850Y-58050D03*
G54D11*
X67850Y-50050D03*
G54D12*
X67850Y-52050D03*
G54D11*
X99850Y-50050D03*
G54D12*
X99850Y-52050D03*
G54D11*
X67850Y-45550D03*
G54D12*
X67850Y-47550D03*
G54D11*
X99850Y-45550D03*
G54D12*
X99850Y-47550D03*
G54D11*
X67850Y-39550D03*
G54D12*
X67850Y-41550D03*
G54D11*
X99850Y-39550D03*
G54D12*
X99850Y-41550D03*
G54D11*
X67850Y-35050D03*
G54D12*
X67850Y-37050D03*
G54D11*
X99850Y-35050D03*
G54D12*
X99850Y-37050D03*
G54D11*
X67850Y-29050D03*
G54D12*
X67850Y-31050D03*
G54D11*
X99850Y-29050D03*
G54D12*
X99850Y-31050D03*
G54D11*
X67850Y-56050D03*
G54D12*
X67850Y-58050D03*
G54D11*
X99850Y-60550D03*
G54D12*
X99850Y-62550D03*
G54D11*
X67850Y-60550D03*
G54D12*
X67850Y-62550D03*
G54D13*
X78350Y-60550D03*
G54D14*
X78850Y-60550D03*
G54D13*
X89350Y-47550D03*
G54D14*
X88850Y-47550D03*
G54D13*
X78350Y-45550D03*
G54D14*
X78850Y-45550D03*
G54D13*
X89350Y-41550D03*
G54D14*
X88850Y-41550D03*
G54D13*
X89350Y-37050D03*
G54D14*
X88850Y-37050D03*
G54D13*
X89350Y-31050D03*
G54D14*
X88850Y-31050D03*
G54D13*
X78350Y-29050D03*
G54D14*
X78850Y-29050D03*
G54D13*
X78350Y-35050D03*
G54D14*
X78850Y-35050D03*
G54D13*
X78350Y-39550D03*
G54D14*
X78850Y-39550D03*
G54D13*
X89350Y-79050D03*
G54D14*
X88850Y-79050D03*
G54D13*
X89350Y-68550D03*
G54D14*
X88850Y-68550D03*
G54D13*
X78350Y-66550D03*
G54D14*
X78850Y-66550D03*
G54D13*
X78350Y-71050D03*
G54D14*
X78850Y-71050D03*
G54D13*
X78350Y-77050D03*
G54D14*
X78850Y-77050D03*
G54D13*
X89350Y-62550D03*
G54D14*
X88850Y-62550D03*
G54D13*
X89350Y-58050D03*
G54D14*
X88850Y-58050D03*
G54D13*
X89350Y-52050D03*
G54D14*
X88850Y-52050D03*
G54D13*
X78350Y-50050D03*
G54D14*
X78850Y-50050D03*
G54D13*
X78350Y-56050D03*
G54D14*
X78850Y-56050D03*
G54D13*
X89350Y-73050D03*
G54D14*
X88850Y-73050D03*
G54D15*
X93802Y-79656D03*
G54D16*
X93802Y-77006D03*
G54D17*
X93850Y-79650D03*
G54D15*
X93802Y-31956D03*
G54D16*
X93802Y-29306D03*
G54D17*
X93850Y-31950D03*
G54D15*
X93802Y-37256D03*
G54D16*
X93802Y-34606D03*
G54D17*
X93850Y-37250D03*
G54D15*
X93802Y-69056D03*
G54D16*
X93802Y-66406D03*
G54D17*
X93850Y-69050D03*
G54D15*
X93802Y-42556D03*
G54D16*
X93802Y-39906D03*
G54D17*
X93850Y-42550D03*
G54D15*
X93802Y-47856D03*
G54D16*
X93802Y-45206D03*
G54D17*
X93850Y-47850D03*
G54D15*
X93802Y-53156D03*
G54D16*
X93802Y-50506D03*
G54D17*
X93850Y-53150D03*
G54D15*
X93802Y-58456D03*
G54D16*
X93802Y-55806D03*
G54D17*
X93850Y-58450D03*
G54D15*
X93802Y-63756D03*
G54D16*
X93802Y-61106D03*
G54D17*
X93850Y-63750D03*
G54D15*
X93802Y-74356D03*
G54D16*
X93802Y-71706D03*
G54D17*
X93850Y-74350D03*
G54D15*
X73797Y-77793D03*
G54D16*
X73797Y-80443D03*
G54D17*
X73750Y-77800D03*
G54D15*
X73797Y-30093D03*
G54D16*
X73797Y-32743D03*
G54D17*
X73750Y-30100D03*
G54D15*
X73797Y-35393D03*
G54D16*
X73797Y-38043D03*
G54D17*
X73750Y-35400D03*
G54D15*
X73797Y-40693D03*
G54D16*
X73797Y-43343D03*
G54D17*
X73750Y-40700D03*
G54D15*
X73797Y-45993D03*
G54D16*
X73797Y-48643D03*
G54D17*
X73750Y-46000D03*
G54D15*
X73797Y-51293D03*
G54D16*
X73797Y-53943D03*
G54D17*
X73750Y-51300D03*
G54D15*
X73797Y-56593D03*
G54D16*
X73797Y-59243D03*
G54D17*
X73750Y-56600D03*
G54D15*
X73797Y-61893D03*
G54D16*
X73797Y-64543D03*
G54D17*
X73750Y-61900D03*
G54D15*
X73797Y-67193D03*
G54D16*
X73797Y-69843D03*
G54D17*
X73750Y-67200D03*
G54D15*
X73797Y-72493D03*
G54D16*
X73797Y-75143D03*
G54D17*
X73750Y-72500D03*
G54D18*
X83858Y-75984D03*
X83858Y-65551D03*
X83858Y-54921D03*
X83858Y-44488D03*
X83858Y-33858D03*
G54D19*
X73797Y-72493D02*
X70093Y-72493D01*
X68650Y-71050D02*
X67850Y-71050D01*
X70093Y-72493D02*
X68650Y-71050D01*
X73797Y-61893D02*
X69993Y-61893D01*
X68650Y-60550D02*
X67850Y-60550D01*
X69993Y-61893D02*
X68650Y-60550D01*
X73797Y-51293D02*
X70043Y-51293D01*
X68800Y-50050D02*
X67850Y-50050D01*
X70043Y-51293D02*
X68800Y-50050D01*
X73797Y-40693D02*
X69943Y-40693D01*
X68800Y-39550D02*
X67850Y-39550D01*
X69943Y-40693D02*
X68800Y-39550D01*
X67850Y-29050D02*
X72753Y-29050D01*
X72753Y-29050D02*
X73797Y-30093D01*
X67850Y-35050D02*
X73453Y-35050D01*
X73453Y-35050D02*
X73797Y-35393D01*
X67850Y-45550D02*
X73353Y-45550D01*
X73353Y-45550D02*
X73797Y-45993D01*
X67850Y-56050D02*
X73253Y-56050D01*
X73253Y-56050D02*
X73797Y-56593D01*
X67850Y-66550D02*
X73153Y-66550D01*
X73153Y-66550D02*
X73797Y-67193D01*
X67850Y-77050D02*
X73053Y-77050D01*
X73053Y-77050D02*
X73797Y-77793D01*
X93802Y-39906D02*
X97593Y-39906D01*
X97950Y-39550D02*
X99850Y-39550D01*
X97593Y-39906D02*
X97950Y-39550D01*
X93802Y-50506D02*
X97593Y-50506D01*
X98050Y-50050D02*
X99850Y-50050D01*
X97593Y-50506D02*
X98050Y-50050D01*
X93802Y-61106D02*
X97943Y-61106D01*
X98500Y-60550D02*
X99850Y-60550D01*
X97943Y-61106D02*
X98500Y-60550D01*
X93802Y-55806D02*
X99606Y-55806D01*
X99606Y-55806D02*
X99850Y-56050D01*
X93802Y-45206D02*
X99506Y-45206D01*
X99506Y-45206D02*
X99850Y-45550D01*
X93802Y-34606D02*
X99406Y-34606D01*
X99406Y-34606D02*
X99850Y-35050D01*
X93802Y-29306D02*
X98343Y-29306D01*
X98600Y-29050D02*
X99850Y-29050D01*
X98343Y-29306D02*
X98600Y-29050D01*
X93802Y-71706D02*
X97793Y-71706D01*
X98450Y-71050D02*
X99850Y-71050D01*
X97793Y-71706D02*
X98450Y-71050D01*
X93802Y-66406D02*
X99706Y-66406D01*
X99706Y-66406D02*
X99850Y-66550D01*
X93802Y-77006D02*
X99806Y-77006D01*
X99806Y-77006D02*
X99850Y-77050D01*
X93802Y-77006D02*
X88493Y-77006D01*
X74653Y-78650D02*
X73797Y-77793D01*
X86850Y-78650D02*
X74653Y-78650D01*
X88493Y-77006D02*
X86850Y-78650D01*
X93802Y-71706D02*
X90706Y-71706D01*
X74053Y-72750D02*
X73797Y-72493D01*
X79500Y-72750D02*
X74053Y-72750D01*
X80650Y-71600D02*
X79500Y-72750D01*
X90600Y-71600D02*
X80650Y-71600D01*
X90706Y-71706D02*
X90600Y-71600D01*
X93802Y-66406D02*
X88443Y-66406D01*
X74653Y-68050D02*
X73797Y-67193D01*
X86800Y-68050D02*
X74653Y-68050D01*
X88443Y-66406D02*
X86800Y-68050D01*
X93802Y-61106D02*
X80743Y-61106D01*
X73953Y-62050D02*
X73797Y-61893D01*
X79800Y-62050D02*
X73953Y-62050D01*
X80743Y-61106D02*
X79800Y-62050D01*
X93802Y-55806D02*
X88743Y-55806D01*
X74653Y-57450D02*
X73797Y-56593D01*
X87100Y-57450D02*
X74653Y-57450D01*
X88743Y-55806D02*
X87100Y-57450D01*
X93802Y-50506D02*
X80843Y-50506D01*
X74153Y-51650D02*
X73797Y-51293D01*
X79700Y-51650D02*
X74153Y-51650D01*
X80843Y-50506D02*
X79700Y-51650D01*
X73797Y-45993D02*
X75943Y-45993D01*
X88893Y-45206D02*
X93802Y-45206D01*
X87250Y-46850D02*
X88893Y-45206D01*
X76800Y-46850D02*
X87250Y-46850D01*
X75943Y-45993D02*
X76800Y-46850D01*
X93802Y-39906D02*
X90943Y-39906D01*
X74303Y-41200D02*
X73797Y-40693D01*
X79500Y-41200D02*
X74303Y-41200D01*
X80550Y-40150D02*
X79500Y-41200D01*
X87950Y-40150D02*
X80550Y-40150D01*
X88100Y-40000D02*
X87950Y-40150D01*
X90850Y-40000D02*
X88100Y-40000D01*
X90943Y-39906D02*
X90850Y-40000D01*
X93802Y-29306D02*
X81093Y-29306D01*
X74303Y-30600D02*
X73797Y-30093D01*
X79800Y-30600D02*
X74303Y-30600D01*
X81093Y-29306D02*
X79800Y-30600D01*
X73797Y-35393D02*
X75943Y-35393D01*
X88893Y-34606D02*
X93802Y-34606D01*
X87050Y-36450D02*
X88893Y-34606D01*
X77500Y-36450D02*
X87050Y-36450D01*
X77350Y-36300D02*
X77500Y-36450D01*
X76850Y-36300D02*
X77350Y-36300D01*
X75943Y-35393D02*
X76850Y-36300D01*
X73797Y-69843D02*
X70193Y-69843D01*
X68900Y-68550D02*
X67850Y-68550D01*
X70193Y-69843D02*
X68900Y-68550D01*
X73797Y-59243D02*
X70093Y-59243D01*
X68900Y-58050D02*
X67850Y-58050D01*
X70093Y-59243D02*
X68900Y-58050D01*
X73797Y-48643D02*
X70343Y-48643D01*
X69250Y-47550D02*
X67850Y-47550D01*
X70343Y-48643D02*
X69250Y-47550D01*
X73797Y-38043D02*
X70193Y-38043D01*
X69200Y-37050D02*
X67850Y-37050D01*
X70193Y-38043D02*
X69200Y-37050D01*
X73797Y-32743D02*
X69543Y-32743D01*
X69543Y-32743D02*
X67850Y-31050D01*
X73797Y-43343D02*
X69643Y-43343D01*
X69643Y-43343D02*
X67850Y-41550D01*
X73797Y-53943D02*
X69743Y-53943D01*
X69743Y-53943D02*
X67850Y-52050D01*
X73797Y-64543D02*
X69843Y-64543D01*
X69843Y-64543D02*
X67850Y-62550D01*
X73797Y-75143D02*
X69943Y-75143D01*
X69943Y-75143D02*
X67850Y-73050D01*
X73797Y-80443D02*
X69243Y-80443D01*
X69243Y-80443D02*
X67850Y-79050D01*
X99850Y-58050D02*
X94209Y-58050D01*
X94209Y-58050D02*
X93802Y-58456D01*
X99850Y-47550D02*
X94109Y-47550D01*
X94109Y-47550D02*
X93802Y-47856D01*
X99850Y-37050D02*
X94009Y-37050D01*
X94009Y-37050D02*
X93802Y-37256D01*
X93802Y-31956D02*
X98943Y-31956D01*
X98943Y-31956D02*
X99850Y-31050D01*
X93802Y-42556D02*
X98843Y-42556D01*
X98843Y-42556D02*
X99850Y-41550D01*
X93802Y-53156D02*
X98743Y-53156D01*
X98743Y-53156D02*
X99850Y-52050D01*
X93802Y-63756D02*
X98643Y-63756D01*
X98643Y-63756D02*
X99850Y-62550D01*
X99850Y-68550D02*
X94309Y-68550D01*
X94309Y-68550D02*
X93802Y-69056D01*
X93802Y-74356D02*
X98543Y-74356D01*
X98543Y-74356D02*
X99850Y-73050D01*
X93802Y-79656D02*
X99243Y-79656D01*
X99243Y-79656D02*
X99850Y-79050D01*
X73797Y-75143D02*
X79806Y-75143D01*
X93409Y-74750D02*
X93802Y-74356D01*
X88200Y-74750D02*
X93409Y-74750D01*
X86850Y-73400D02*
X88200Y-74750D01*
X81550Y-73400D02*
X86850Y-73400D01*
X79806Y-75143D02*
X81550Y-73400D01*
X73797Y-64543D02*
X80106Y-64543D01*
X93409Y-64150D02*
X93802Y-63756D01*
X88000Y-64150D02*
X93409Y-64150D01*
X86800Y-62950D02*
X88000Y-64150D01*
X81700Y-62950D02*
X86800Y-62950D01*
X80106Y-64543D02*
X81700Y-62950D01*
X73797Y-53943D02*
X80156Y-53943D01*
X93309Y-53650D02*
X93802Y-53156D01*
X88100Y-53650D02*
X93309Y-53650D01*
X86750Y-52300D02*
X88100Y-53650D01*
X81800Y-52300D02*
X86750Y-52300D01*
X80156Y-53943D02*
X81800Y-52300D01*
X73797Y-43343D02*
X80106Y-43343D01*
X93209Y-43150D02*
X93802Y-42556D01*
X88200Y-43150D02*
X93209Y-43150D01*
X87000Y-41950D02*
X88200Y-43150D01*
X81500Y-41950D02*
X87000Y-41950D01*
X80106Y-43343D02*
X81500Y-41950D01*
X73797Y-32743D02*
X80056Y-32743D01*
X91393Y-31956D02*
X93802Y-31956D01*
X90600Y-32750D02*
X91393Y-31956D01*
X88100Y-32750D02*
X90600Y-32750D01*
X86500Y-31150D02*
X88100Y-32750D01*
X81900Y-31150D02*
X86500Y-31150D01*
X80300Y-32750D02*
X81900Y-31150D01*
X80063Y-32750D02*
X80300Y-32750D01*
X80056Y-32743D02*
X80063Y-32750D01*
X93802Y-37256D02*
X91643Y-37256D01*
X79293Y-38043D02*
X73797Y-38043D01*
X79600Y-38350D02*
X79293Y-38043D01*
X90550Y-38350D02*
X79600Y-38350D01*
X91643Y-37256D02*
X90550Y-38350D01*
X73797Y-48643D02*
X87893Y-48643D01*
X93059Y-48600D02*
X93802Y-47856D01*
X90800Y-48600D02*
X93059Y-48600D01*
X90550Y-48850D02*
X90800Y-48600D01*
X88100Y-48850D02*
X90550Y-48850D01*
X87893Y-48643D02*
X88100Y-48850D01*
X73797Y-59243D02*
X76656Y-59243D01*
X92909Y-59350D02*
X93802Y-58456D01*
X88150Y-59350D02*
X92909Y-59350D01*
X87950Y-59150D02*
X88150Y-59350D01*
X76750Y-59150D02*
X87950Y-59150D01*
X76656Y-59243D02*
X76750Y-59150D01*
X73797Y-69843D02*
X76706Y-69843D01*
X92959Y-69900D02*
X93802Y-69056D01*
X88150Y-69900D02*
X92959Y-69900D01*
X88000Y-69750D02*
X88150Y-69900D01*
X76800Y-69750D02*
X88000Y-69750D01*
X76706Y-69843D02*
X76800Y-69750D01*
X73797Y-80443D02*
X87893Y-80443D01*
X91693Y-79656D02*
X90900Y-80450D01*
X90900Y-80450D02*
X87900Y-80450D01*
X91693Y-79656D02*
X93802Y-79656D01*
X87893Y-80443D02*
X87900Y-80450D01*
M02*
