M48
METRIC,TZ
T1C0.600
T2C1.016
T3C3.048
T4C4.000
%
G90
G05
T1
X38.089Y134.613
X38.089Y119.373
X38.089Y107.943
X38.089Y92.703
X38.089Y81.273
X38.089Y66.033
X38.089Y54.603
X38.089Y39.363
X38.089Y27.933
X38.089Y12.693
X63.489Y129.533
X63.489Y114.293
X63.489Y102.863
X63.489Y87.623
X63.489Y76.193
X63.489Y60.953
X63.489Y49.523
X63.489Y34.283
X63.489Y22.853
X63.489Y7.613
T2
X10.149Y134.613
X10.149Y129.533
X10.149Y119.373
X10.149Y114.293
X10.149Y107.943
X10.149Y102.863
X10.149Y92.703
X10.149Y87.623
X10.149Y81.273
X10.149Y76.193
X10.149Y66.033
X10.149Y60.953
X10.149Y54.603
X10.149Y49.523
X10.149Y39.363
X10.149Y34.283
X10.149Y27.933
X10.149Y22.853
X10.149Y12.693
X10.149Y7.613
X91.429Y134.613
X91.429Y129.533
X91.429Y119.373
X91.429Y114.293
X91.429Y107.943
X91.429Y102.863
X91.429Y92.703
X91.429Y87.623
X91.429Y81.273
X91.429Y76.193
X91.429Y66.033
X91.429Y60.953
X91.429Y54.603
X91.429Y49.523
X91.429Y39.363
X91.429Y34.283
X91.429Y27.933
X91.429Y22.853
X91.429Y12.693
X91.429Y7.613
T3
X50.81Y122.4
X50.81Y95.4
X50.81Y68.9
X50.81Y41.9
X50.81Y15.4
T4
X25.135Y131.946
X25.135Y118.484
X25.135Y105.022
X25.135Y91.56
X25.135Y78.098
X25.135Y64.636
X25.135Y51.174
X25.135Y37.712
X25.135Y24.25
X25.135Y10.788
X76.189Y127.247
X76.189Y113.785
X76.189Y100.323
X76.189Y86.861
X76.189Y73.399
X76.189Y59.937
X76.189Y46.475
X76.189Y33.013
X76.189Y19.551
X76.189Y6.089
T0
M30
